HIERARCHY
ROOT Hips
{
	OFFSET 0.000000 0.000000 0.000000 
	CHANNELS 6 Xposition Yposition Zposition Yrotation Zrotation Xrotation 
	JOINT Lumbar
	{
		OFFSET 0.000000 0.000000 0.000000 
		CHANNELS 3 Zrotation Xrotation Yrotation
		JOINT Neck
		{
			OFFSET 0.000000 0.445665 0.000000 
			CHANNELS 3 Zrotation Xrotation Yrotation
			End Site
			{
				OFFSET 0.000000 0.227535 0.000000 
			}
		}
		JOINT RightShoulder
		{
			OFFSET 0.019635 0.377685 0.194865 
			CHANNELS 3 Zrotation Xrotation Yrotation
			JOINT RightElbow
			{
				OFFSET 0.000000 -0.243375 0.000000 
				CHANNELS 2 Zrotation Yrotation
				JOINT RightWrist
				{
					OFFSET 0.000000 -0.264825 0.000000 
					CHANNELS 2 Zrotation Xrotation
					End Site
					{
						OFFSET 0.006600 -0.176220 0.000990 
					}
				}
			}
		}
		JOINT LeftShoulder
		{
			OFFSET 0.019635 0.377685 -0.194865 
			CHANNELS 3 Zrotation Xrotation Yrotation
			JOINT LeftElbow
			{
				OFFSET 0.000000 -0.243375 0.000000 
				CHANNELS 2 Zrotation Yrotation
				JOINT LeftWrist
				{
					OFFSET 0.000000 -0.264825 0.000000 
					CHANNELS 2 Zrotation Xrotation
					End Site
					{
						OFFSET 0.006600 -0.176220 -0.000990 
					}
				}
			}
		}
	}
	JOINT RightHip
	{
		OFFSET 0.052140 -0.069960 0.075570 
		CHANNELS 3 Zrotation Xrotation Yrotation
		JOINT RightKnee
		{
			OFFSET 0.000000 -0.402270 0.000000 
			CHANNELS 1 Zrotation
			JOINT RightAnkle
			{
				OFFSET 0.000000 -0.404085 0.000000 
				CHANNELS 3 Zrotation Xrotation Yrotation
				End Site
				{
					OFFSET 0.204105 -0.089430 0.008415 
				}
			}
		}
	}
	JOINT LeftHip
	{
		OFFSET 0.052140 -0.069960 -0.075570 
		CHANNELS 3 Zrotation Xrotation Yrotation
		JOINT LeftKnee
		{
			OFFSET 0.000000 -0.402270 0.000000 
			CHANNELS 1 Zrotation
			JOINT LeftAnkle
			{
				OFFSET 0.000000 -0.404085 0.000000 
				CHANNELS 3 Zrotation Xrotation Yrotation
				End Site
				{
					OFFSET 0.204105 -0.089430 -0.008415 
				}
			}
		}
	}
}
MOTION
Frames: 16
Frame Time: 0.02
-0.54856 0.89642 -0.92115 308.58563 0 -9.96092 -0.28295 10.2176 -13.11601 -26.74104 6.29121 -6.62842 28.19042 -37.66897 10.19059 114.09025 125.75301 -74.02069 -8.12899 62.5104 21.10542 -45.35375 104.80386 -126.18416 -59.68181 7.99729 22.34392 6.64439 0.79048 -23.18102 -13.23921 -1.85901 -15.17227 0.55048 -0.03035 15.33357 -22.37387 7.70109 7.25916 16.37059
-0.55165 0.89705 -0.91815 307.00443 0 -10.0074 0.18152 10.46758 -12.99885 -27.15867 6.0557 -6.80745 28.30894 -37.03225 10.23293 113.94018 125.89828 -74.01948 -8.14897 62.61668 21.10444 -45.46428 104.91399 -126.13216 -59.77535 7.98533 21.77645 5.7253 0.11395 -24.3912 -12.59836 -1.92287 -15.53291 0.47789 0.20112 16.53581 -22.21459 7.67534 7.1973 16.50671
-0.55467 0.89734 -0.91434 305.61396 0 -10.01106 0.65517 10.68016 -12.94607 -27.54739 5.89529 -6.96134 28.38281 -36.41811 10.30221 113.80776 126.03309 -74.01832 -8.16691 62.46928 21.05932 -45.5311 104.95123 -126.13429 -59.9376 7.97972 21.0801 4.6855 -0.77441 -25.33318 -11.88586 -2.00508 -15.7715 0.41268 0.44178 17.6409 -22.19826 7.72758 7.1921 16.55931
-0.55776 0.8978 -0.91085 304.13657 0 -10.03549 1.11888 10.90881 -12.86243 -27.93999 5.70485 -7.11887 28.4741 -35.80227 10.36267 113.66281 126.17743 -74.01709 -8.18658 62.4273 21.03166 -45.61479 105.01536 -126.12211 -60.07462 7.97289 20.43889 3.70852 -1.59867 -26.35175 -11.2333 -2.07451 -16.0632 0.34395 0.68383 18.77623 -22.12421 7.74114 7.15721 16.64828
-0.56065 0.89819 -0.90756 302.66616 0 -10.05523 1.61035 11.14383 -12.78573 -28.37389 5.49886 -7.30813 28.57742 -35.14669 10.41662 113.52996 126.30447 -74.01601 -8.2033 62.40658 21.0059 -45.70176 105.09585 -126.07084 -60.18427 7.95988 19.8078 2.69105 -2.27144 -27.57375 -10.45858 -2.16327 -16.36735 0.27659 0.90616 19.9744 -22.02459 7.77183 7.13434 16.73265
-0.56396 0.89866 -0.90366 301.22259 0 -10.0737 2.04402 11.35474 -12.70879 -28.71358 5.34203 -7.425 28.64545 -34.58053 10.48849 113.37927 126.46292 -74.01466 -8.22536 62.2894 20.96943 -45.77558 105.12847 -126.11044 -60.36703 7.96067 19.12928 1.73487 -3.31624 -28.30456 -9.92366 -2.216 -16.61542 0.20727 1.17028 21.01865 -22.01004 7.78358 7.1013 16.81086
-0.56832 0.89941 -0.89835 299.82719 0 -10.10568 2.3262 11.52035 -12.62833 -28.80587 5.3076 -7.35773 28.6237 -34.25787 10.59093 113.16926 126.72297 -74.01249 -8.26453 61.96586 20.91022 -45.81781 105.05071 -126.40881 -60.74688 8.0012 18.31982 0.94109 -5.33295 -27.73449 -10.0691 -2.16372 -16.74128 0.13779 1.54764 21.64122 -22.19777 7.72922 7.0308 16.89555
-0.57313 0.90025 -0.89244 298.44821 0 -10.13651 2.54768 11.66038 -12.54354 -28.80305 5.31909 -7.21726 28.56926 -34.025 10.71153 112.94307 127.01215 -74.01009 -8.30871 61.55792 20.84322 -45.85058 104.92812 -126.79234 -61.19584 8.05472 17.47332 0.22073 -7.71827 -26.68058 -10.45822 -2.07476 -16.8142 0.06448 1.96608 22.11498 -22.46485 7.65151 6.94796 16.978
-0.57784 0.90104 -0.88676 297.04698 0 -10.16368 2.78971 11.80414 -12.45191 -28.83976 5.30582 -7.10386 28.53094 -33.74958 10.83055 112.72839 127.28008 -74.00785 -8.3494 61.19195 20.78428 -45.89303 104.82479 -127.12288 -61.60608 8.10016 16.66445 -0.50928 -9.9411 -25.85142 -10.73749 -2.00302 -16.90905 -0.01131 2.3653 22.66966 -22.69365 7.58084 6.8686 17.06113
-0.58213 0.90186 -0.88123 295.71313 0 -10.20744 3.06148 11.98051 -12.39805 -28.891 5.31092 -7.01442 28.48276 -33.48038 10.92231 112.49495 127.58277 -74.00533 -8.39536 60.79868 20.70669 -45.91157 104.72299 -127.51625 -62.05075 8.15508 15.76263 -1.34489 -12.15536 -24.98761 -11.01428 -1.92913 -17.00816 -0.06781 2.76774 23.16583 -22.93779 7.52881 6.80028 17.14254
-0.58739 0.90265 -0.87525 294.24259 0 -10.21639 3.25716 12.08265 -12.26571 -28.8899 5.28859 -6.85966 28.45166 -33.22161 11.07504 112.2987 127.8185 -74.00336 -8.43132 60.44916 20.66401 -45.97766 104.6089 -127.79754 -62.4377 8.19317 15.0481 -1.94003 -14.46535 -24.09075 -11.35018 -1.85135 -17.08806 -0.16702 3.17246 23.74867 -23.16583 7.43041 6.70511 17.22814
-0.59513 0.90338 -0.86828 292.37086 0 -10.13425 3.25423 11.9921 -11.90052 -28.76698 5.17121 -6.52893 28.44592 -32.95013 11.38877 112.19118 127.87599 -74.00285 -8.44061 60.2146 20.74356 -46.18315 104.46866 -127.75426 -62.66118 8.18224 14.85287 -1.90079 -17.00543 -23.16771 -11.83137 -1.76718 -17.12233 -0.3689 3.5794 24.61486 -23.34175 7.21705 6.54049 17.32656
-0.60385 0.90408 -0.86085 290.36435 0 -10.01641 3.17764 11.82665 -11.45989 -28.59538 5.02582 -6.1379 28.46557 -32.68992 11.76351 112.12528 127.86274 -74.00294 -8.43932 60.03465 20.8544 -46.43607 104.31909 -127.59386 -62.82134 8.15378 14.84879 -1.61915 -19.61538 -22.23897 -12.3558 -1.68138 -17.14033 -0.61543 3.98663 25.57106 -23.49801 6.95568 6.34869 17.42956
-0.61217 0.90478 -0.85357 288.43071 0 -9.91208 3.13655 11.69192 -11.06412 -28.44601 4.89809 -5.78313 28.49174 -32.4368 12.11217 112.05156 127.87262 -74.00285 -8.44146 59.84668 20.93537 -46.66365 104.17563 -127.48305 -63.00189 8.13288 14.76309 -1.44039 -22.15855 -21.34967 -12.83404 -1.599 -17.17058 -0.85213 4.38899 26.48327 -23.652 6.7115 6.16801 17.53049
-0.6203 0.90554 -0.84653 286.44612 0 -9.81934 3.08371 11.57089 -10.62151 -28.291 4.75096 -5.38733 28.43522 -32.13387 12.45489 111.92899 127.92077 -74.00236 -8.44947 59.57903 21.08174 -46.90653 104.02058 -127.39073 -63.22078 8.11412 14.65614 -1.29046 -24.87198 -20.2895 -13.43457 -1.50309 -17.18017 -1.04858 4.81035 27.40891 -23.84704 6.48759 5.9922 17.63138
-0.62906 0.90617 -0.83888 284.53868 0 -9.69375 3.04003 11.4031 -10.26119 -28.13973 4.63727 -5.06497 28.56399 -31.93794 12.82379 111.92006 127.87307 -74.00285 -8.44284 59.49853 21.09993 -47.12933 103.89067 -127.23082 -63.34327 8.08661 14.63647 -1.02315 -27.23077 -19.58802 -13.78524 -1.43663 -17.22743 -1.33468 5.19472 28.32282 -23.96232 6.2085 5.79985 17.7333
